<svg width="32" height="32" viewBox="0 0 32 32" fill="none" xmlns="http://www.w3.org/2000/svg">
<path d="M30.1914 1.80899C29.4735 1.09122 28.4999 0.687988 27.4847 0.687988C26.4696 0.687988 25.496 1.09122 24.7781 1.80899L23.0908 3.49629L28.5041 8.90962L30.1914 7.22233C30.9092 6.50443 31.3124 5.53083 31.3124 4.51566C31.3124 3.50049 30.9092 2.52689 30.1914 1.80899ZM26.9568 10.4569L21.5435 5.04358L3.82475 22.7623C2.92474 23.6619 2.26313 24.7716 1.89975 25.9911L0.73308 29.9067C0.676753 30.0957 0.672552 30.2963 0.720921 30.4875C0.76929 30.6786 0.868431 30.8531 1.00785 30.9926C1.14727 31.132 1.32179 31.2311 1.51294 31.2795C1.70408 31.3279 1.90475 31.3237 2.0937 31.2673L6.00933 30.1007C7.22883 29.7373 8.33852 29.0757 9.23808 28.1757L26.9568 10.4584V10.4569Z" fill="black"/>
</svg>
